<?xml version="1.0" encoding="utf-8"?><svg xmlns="http://www.w3.org/2000/svg" width="1600" height="954"><g id="DELAWARE"><polygon points="948.5864922785552,512.3333333333334,979.1860565456053,494.6666666666667,1009.7856208126555,512.3333333333334,1009.7856208126555,547.6666666666666,979.1860565456053,565.3333333333334,948.5864922785552,547.6666666666666,948.5864922785552,512.3333333333334" fill="rgb(112, 245, 174)"/></g><g id="DISTRICT OF COLUMBIA"><polygon points="917.986928011505,565.3333333333334,948.5864922785552,547.6666666666666,979.1860565456053,565.3333333333334,979.1860565456053,600.6666666666666,948.5864922785552,618.3333333333334,917.986928011505,600.6666666666666,917.986928011505,565.3333333333334" fill="rgb(112, 245, 167)"/></g><g id="FLORIDA"><polygon points="795.5886709433044,671.3333333333334,826.1882352103545,653.6666666666666,856.7877994774046,671.3333333333334,856.7877994774046,706.6666666666666,826.1882352103545,724.3333333333334,795.5886709433044,706.6666666666666,795.5886709433044,671.3333333333334" fill="rgb(112, 245, 159)"/></g><g id="GEORGIA"><polygon points="826.1882352103545,618.3333333333334,856.7877994774046,600.6666666666666,887.3873637444548,618.3333333333334,887.3873637444548,653.6666666666666,856.7877994774046,671.3333333333334,826.1882352103545,653.6666666666666,826.1882352103545,618.3333333333334" fill="rgb(112, 245, 152)"/></g><g id="HAWAII"><polygon points="305.9956426705017,671.3333333333334,336.59520693755184,653.6666666666666,367.194771204602,671.3333333333334,367.194771204602,706.6666666666666,336.59520693755184,724.3333333333334,305.9956426705017,706.6666666666666,305.9956426705017,671.3333333333334" fill="rgb(112, 245, 138)"/></g><g id="IDAHO"><polygon points="428.3938997387024,459.33333333333337,458.9934640057525,441.66666666666674,489.59302827280266,459.33333333333337,489.59302827280266,494.66666666666674,458.9934640057525,512.3333333333334,428.3938997387024,494.66666666666674,428.3938997387024,459.33333333333337" fill="rgb(112, 245, 131)"/></g><g id="ILLINOIS"><polygon points="673.1904138751037,459.33333333333337,703.7899781421538,441.66666666666674,734.389542409204,459.33333333333337,734.389542409204,494.66666666666674,703.7899781421538,512.3333333333334,673.1904138751037,494.66666666666674,673.1904138751037,459.33333333333337" fill="rgb(112, 245, 124)"/></g><g id="INDIANA"><polygon points="734.389542409204,459.33333333333337,764.9891066762541,441.66666666666674,795.5886709433042,459.33333333333337,795.5886709433042,494.66666666666674,764.9891066762541,512.3333333333334,734.389542409204,494.66666666666674,734.389542409204,459.33333333333337" fill="rgb(112, 245, 117)"/></g><g id="IOWA"><polygon points="611.9912853410034,459.33333333333337,642.5908496080535,441.66666666666674,673.1904138751037,459.33333333333337,673.1904138751037,494.66666666666674,642.5908496080535,512.3333333333334,611.9912853410034,494.66666666666674,611.9912853410034,459.33333333333337" fill="rgb(114, 245, 112)"/></g><g id="KANSAS"><polygon points="611.9912853410034,565.3333333333334,642.5908496080535,547.6666666666666,673.1904138751037,565.3333333333334,673.1904138751037,600.6666666666666,642.5908496080535,618.3333333333334,611.9912853410034,600.6666666666666,611.9912853410034,565.3333333333334" fill="rgb(121, 245, 112)"/></g><g id="KENTUCKY"><polygon points="703.7899781421538,512.3333333333334,734.389542409204,494.6666666666667,764.9891066762541,512.3333333333334,764.9891066762541,547.6666666666666,734.389542409204,565.3333333333334,703.7899781421538,547.6666666666666,703.7899781421538,512.3333333333334" fill="rgb(129, 245, 112)"/></g><g id="LOUISIANA"><polygon points="642.5908496080535,618.3333333333334,673.1904138751037,600.6666666666666,703.7899781421538,618.3333333333334,703.7899781421538,653.6666666666666,673.1904138751037,671.3333333333334,642.5908496080535,653.6666666666666,642.5908496080535,618.3333333333334" fill="rgb(136, 245, 112)"/></g><g id="MAINE"><polygon points="1009.7856208126556,300.3333333333333,1040.3851850797057,282.6666666666667,1070.984749346756,300.3333333333333,1070.984749346756,335.6666666666667,1040.3851850797057,353.3333333333333,1009.7856208126556,335.6666666666667,1009.7856208126556,300.3333333333333" fill="rgb(143, 245, 112)"/></g><g id="MARYLAND"><polygon points="887.3873637444549,512.3333333333334,917.986928011505,494.6666666666667,948.5864922785552,512.3333333333334,948.5864922785552,547.6666666666666,917.986928011505,565.3333333333334,887.3873637444549,547.6666666666666,887.3873637444549,512.3333333333334" fill="rgb(150, 245, 112)"/></g><g id="MASSACHUSETTS"><polygon points="948.5864922785552,406.3333333333333,979.1860565456053,388.6666666666667,1009.7856208126555,406.3333333333333,1009.7856208126555,441.6666666666667,979.1860565456053,459.3333333333333,948.5864922785552,441.6666666666667,948.5864922785552,406.3333333333333" fill="rgb(157, 245, 112)"/></g><g id="MICHIGAN"><polygon points="764.9891066762542,406.3333333333333,795.5886709433044,388.6666666666667,826.1882352103545,406.3333333333333,826.1882352103545,441.6666666666667,795.5886709433044,459.3333333333333,764.9891066762542,441.6666666666667,764.9891066762542,406.3333333333333" fill="rgb(164, 245, 112)"/></g><g id="MINNESOTA"><polygon points="581.3917210739531,406.3333333333333,611.9912853410033,388.6666666666667,642.5908496080534,406.3333333333333,642.5908496080534,441.6666666666667,611.9912853410033,459.3333333333333,581.3917210739531,441.6666666666667,581.3917210739531,406.3333333333333" fill="rgb(171, 245, 112)"/></g><g id="MISSISSIPPI"><polygon points="703.7899781421538,618.3333333333334,734.389542409204,600.6666666666666,764.9891066762541,618.3333333333334,764.9891066762541,653.6666666666666,734.389542409204,671.3333333333334,703.7899781421538,653.6666666666666,703.7899781421538,618.3333333333334" fill="rgb(179, 245, 112)"/></g><g id="MISSOURI"><polygon points="642.5908496080535,512.3333333333334,673.1904138751037,494.6666666666667,703.7899781421538,512.3333333333334,703.7899781421538,547.6666666666666,673.1904138751037,565.3333333333334,642.5908496080535,547.6666666666666,642.5908496080535,512.3333333333334" fill="rgb(186, 245, 112)"/></g><g id="MONTANA"><polygon points="458.9934640057525,406.3333333333333,489.59302827280266,388.6666666666667,520.1925925398529,406.3333333333333,520.1925925398529,441.6666666666667,489.59302827280266,459.3333333333333,458.9934640057525,441.6666666666667,458.9934640057525,406.3333333333333" fill="rgb(193, 245, 112)"/></g><g id="NEBRASKA"><polygon points="581.3917210739531,512.3333333333334,611.9912853410033,494.6666666666667,642.5908496080534,512.3333333333334,642.5908496080534,547.6666666666666,611.9912853410033,565.3333333333334,581.3917210739531,547.6666666666666,581.3917210739531,512.3333333333334" fill="rgb(200, 245, 112)"/></g><g id="NEVADA"><polygon points="458.9934640057525,512.3333333333334,489.59302827280266,494.6666666666667,520.1925925398529,512.3333333333334,520.1925925398529,547.6666666666666,489.59302827280266,565.3333333333334,458.9934640057525,547.6666666666666,458.9934640057525,512.3333333333334" fill="rgb(207, 245, 112)"/></g><g id="NEW HAMPSHIRE"><polygon points="979.1860565456053,353.3333333333333,1009.7856208126555,335.6666666666667,1040.3851850797057,353.3333333333333,1040.3851850797057,388.6666666666667,1009.7856208126555,406.3333333333333,979.1860565456053,388.6666666666667,979.1860565456053,353.3333333333333" fill="rgb(214, 245, 112)"/></g><g id="NEW JERSEY"><polygon points="917.986928011505,459.33333333333337,948.5864922785552,441.66666666666674,979.1860565456053,459.33333333333337,979.1860565456053,494.66666666666674,948.5864922785552,512.3333333333334,917.986928011505,494.66666666666674,917.986928011505,459.33333333333337" fill="rgb(221, 245, 112)"/></g><g id="NEW MEXICO"><polygon points="550.792156806903,565.3333333333334,581.3917210739531,547.6666666666666,611.9912853410033,565.3333333333334,611.9912853410033,600.6666666666666,581.3917210739531,618.3333333333334,550.792156806903,600.6666666666666,550.792156806903,565.3333333333334" fill="rgb(228, 245, 112)"/></g><g id="NEW YORK"><polygon points="887.3873637444549,406.3333333333333,917.986928011505,388.6666666666667,948.5864922785552,406.3333333333333,948.5864922785552,441.6666666666667,917.986928011505,459.3333333333333,887.3873637444549,441.6666666666667,887.3873637444549,406.3333333333333" fill="rgb(236, 245, 112)"/></g><g id="NORTH CAROLINA"><polygon points="795.5886709433044,565.3333333333334,826.1882352103545,547.6666666666666,856.7877994774046,565.3333333333334,856.7877994774046,600.6666666666666,826.1882352103545,618.3333333333334,795.5886709433044,600.6666666666666,795.5886709433044,565.3333333333334" fill="rgb(243, 245, 112)"/></g><g id="NORTH DAKOTA"><polygon points="520.1925925398529,406.3333333333333,550.792156806903,388.6666666666667,581.3917210739531,406.3333333333333,581.3917210739531,441.6666666666667,550.792156806903,459.3333333333333,520.1925925398529,441.6666666666667,520.1925925398529,406.3333333333333" fill="rgb(245, 240, 112)"/></g><g id="OHIO"><polygon points="795.5886709433044,459.33333333333337,826.1882352103545,441.66666666666674,856.7877994774046,459.33333333333337,856.7877994774046,494.66666666666674,826.1882352103545,512.3333333333334,795.5886709433044,494.66666666666674,795.5886709433044,459.33333333333337" fill="rgb(245, 233, 112)"/></g><g id="OKLAHOMA"><polygon points="581.3917210739531,618.3333333333334,611.9912853410033,600.6666666666666,642.5908496080534,618.3333333333334,642.5908496080534,653.6666666666666,611.9912853410033,671.3333333333334,581.3917210739531,653.6666666666666,581.3917210739531,618.3333333333334" fill="rgb(245, 226, 112)"/></g><g id="OREGON"><polygon points="397.7943354716522,512.3333333333334,428.3938997387023,494.6666666666667,458.99346400575246,512.3333333333334,458.99346400575246,547.6666666666666,428.3938997387023,565.3333333333334,397.7943354716522,547.6666666666666,397.7943354716522,512.3333333333334" fill="rgb(245, 219, 112)"/></g><g id="PENNSYLVANIA"><polygon points="856.7877994774046,459.33333333333337,887.3873637444548,441.66666666666674,917.9869280115049,459.33333333333337,917.9869280115049,494.66666666666674,887.3873637444548,512.3333333333334,856.7877994774046,494.66666666666674,856.7877994774046,459.33333333333337" fill="rgb(245, 212, 112)"/></g><g id="RHODE ISLAND"><polygon points="1009.7856208126556,406.3333333333333,1040.3851850797057,388.6666666666667,1070.984749346756,406.3333333333333,1070.984749346756,441.6666666666667,1040.3851850797057,459.3333333333333,1009.7856208126556,441.6666666666667,1009.7856208126556,406.3333333333333" fill="rgb(245, 198, 112)"/></g><g id="SOUTH CAROLINA"><polygon points="856.7877994774046,565.3333333333334,887.3873637444548,547.6666666666666,917.9869280115049,565.3333333333334,917.9869280115049,600.6666666666666,887.3873637444548,618.3333333333334,856.7877994774046,600.6666666666666,856.7877994774046,565.3333333333334" fill="rgb(245, 190, 112)"/></g><g id="SOUTH DAKOTA"><polygon points="550.792156806903,459.33333333333337,581.3917210739531,441.66666666666674,611.9912853410033,459.33333333333337,611.9912853410033,494.66666666666674,581.3917210739531,512.3333333333334,550.792156806903,494.66666666666674,550.792156806903,459.33333333333337" fill="rgb(245, 183, 112)"/></g><g id="TENNESSEE"><polygon points="734.389542409204,565.3333333333334,764.9891066762541,547.6666666666666,795.5886709433042,565.3333333333334,795.5886709433042,600.6666666666666,764.9891066762541,618.3333333333334,734.389542409204,600.6666666666666,734.389542409204,565.3333333333334" fill="rgb(245, 176, 112)"/></g><g id="TEXAS"><polygon points="611.9912853410034,671.3333333333334,642.5908496080535,653.6666666666666,673.1904138751037,671.3333333333334,673.1904138751037,706.6666666666666,642.5908496080535,724.3333333333334,611.9912853410034,706.6666666666666,611.9912853410034,671.3333333333334" fill="rgb(245, 169, 112)"/></g><g id="UTAH"><polygon points="489.5930282728027,565.3333333333334,520.1925925398529,547.6666666666666,550.792156806903,565.3333333333334,550.792156806903,600.6666666666666,520.1925925398529,618.3333333333334,489.5930282728027,600.6666666666666,489.5930282728027,565.3333333333334" fill="rgb(245, 162, 112)"/></g><g id="VERMONT"><polygon points="917.986928011505,353.3333333333333,948.5864922785552,335.6666666666667,979.1860565456053,353.3333333333333,979.1860565456053,388.6666666666667,948.5864922785552,406.3333333333333,917.986928011505,388.6666666666667,917.986928011505,353.3333333333333" fill="rgb(245, 155, 112)"/></g><g id="VIRGINIA"><polygon points="826.1882352103545,512.3333333333334,856.7877994774046,494.6666666666667,887.3873637444548,512.3333333333334,887.3873637444548,547.6666666666666,856.7877994774046,565.3333333333334,826.1882352103545,547.6666666666666,826.1882352103545,512.3333333333334" fill="rgb(245, 148, 112)"/></g><g id="WASHINGTON"><polygon points="397.7943354716522,406.3333333333333,428.3938997387023,388.6666666666667,458.99346400575246,406.3333333333333,458.99346400575246,441.6666666666667,428.3938997387023,459.3333333333333,397.7943354716522,441.6666666666667,397.7943354716522,406.3333333333333" fill="rgb(245, 133, 112)"/></g><g id="WEST VIRGINIA"><polygon points="764.9891066762542,512.3333333333334,795.5886709433044,494.6666666666667,826.1882352103545,512.3333333333334,826.1882352103545,547.6666666666666,795.5886709433044,565.3333333333334,764.9891066762542,547.6666666666666,764.9891066762542,512.3333333333334" fill="rgb(245, 126, 112)"/></g><g id="WISCONSIN"><polygon points="642.5908496080535,406.3333333333333,673.1904138751037,388.6666666666667,703.7899781421538,406.3333333333333,703.7899781421538,441.6666666666667,673.1904138751037,459.3333333333333,642.5908496080535,441.6666666666667,642.5908496080535,406.3333333333333" fill="rgb(245, 119, 112)"/></g><g id="WYOMING"><polygon points="489.5930282728027,459.33333333333337,520.1925925398529,441.66666666666674,550.792156806903,459.33333333333337,550.792156806903,494.66666666666674,520.1925925398529,512.3333333333334,489.5930282728027,494.66666666666674,489.5930282728027,459.33333333333337" fill="rgb(112, 245, 245)"/></g><g id="ALASKA"><polygon points="336.59520693755184,300.3333333333333,367.194771204602,282.6666666666667,397.7943354716521,300.3333333333333,397.7943354716521,335.6666666666667,367.194771204602,353.3333333333333,336.59520693755184,335.6666666666667,336.59520693755184,300.3333333333333" fill="rgb(112, 245, 231)"/></g><g id="CALIFORNIA"><polygon points="428.3938997387024,565.3333333333334,458.9934640057525,547.6666666666666,489.59302827280266,565.3333333333334,489.59302827280266,600.6666666666666,458.9934640057525,618.3333333333334,428.3938997387024,600.6666666666666,428.3938997387024,565.3333333333334" fill="rgb(112, 245, 202)"/></g><g id="COLORADO"><polygon points="520.1925925398529,512.3333333333334,550.792156806903,494.6666666666667,581.3917210739531,512.3333333333334,581.3917210739531,547.6666666666666,550.792156806903,565.3333333333334,520.1925925398529,547.6666666666666,520.1925925398529,512.3333333333334" fill="rgb(112, 245, 188)"/></g><g id="ARIZONA"><polygon points="520.1925925398529,618.3333333333334,550.792156806903,600.6666666666666,581.3917210739531,618.3333333333334,581.3917210739531,653.6666666666666,550.792156806903,671.3333333333334,520.1925925398529,653.6666666666666,520.1925925398529,618.3333333333334" fill="rgb(112, 245, 217)"/></g><g id="ARKANSAS"><polygon points="673.1904138751037,565.3333333333334,703.7899781421538,547.6666666666666,734.389542409204,565.3333333333334,734.389542409204,600.6666666666666,703.7899781421538,618.3333333333334,673.1904138751037,600.6666666666666,673.1904138751037,565.3333333333334" fill="rgb(112, 245, 209)"/></g><g id="ALABAMA"><polygon points="764.9891066762542,618.3333333333334,795.5886709433044,600.6666666666666,826.1882352103545,618.3333333333334,826.1882352103545,653.6666666666666,795.5886709433044,671.3333333333334,764.9891066762542,653.6666666666666,764.9891066762542,618.3333333333334" fill="rgb(112, 245, 238)"/></g><g id="CONNECTICUT"><polygon points="979.1860565456053,459.33333333333337,1009.7856208126555,441.66666666666674,1040.3851850797057,459.33333333333337,1040.3851850797057,494.66666666666674,1009.7856208126555,512.3333333333334,979.1860565456053,494.66666666666674,979.1860565456053,459.33333333333337" fill="rgb(112, 245, 181)"/></g></svg>