<svg xmlns="http://www.w3.org/2000/svg" viewBox="0 0 309.44 135.36"><defs><style>.cls-1{fill:none;}.cls-2{fill:#e63312;}</style></defs><title>inria_logo_fr_rouge_rvb</title><g id="Calque_2" data-name="Calque 2"><g id="Calque_1-2" data-name="Calque 1"><rect class="cls-1" x="87.04" y="-87.04" width="135.36" height="309.44" transform="translate(222.4 -87.04) rotate(90)"/><path class="cls-2" d="M69.71,23.7a59.52,59.52,0,0,0,11.45-9.09c2.8-2.84-9.52-1.57-12.49,1a83.93,83.93,0,0,0-9.47,9.25C57.44,26.87,65.86,26,69.71,23.7ZM295.05,87.63c2.19,1.31,2.09-5.53-2.32-8.28-15.79-9.84-59,7.31-75.34,9.26-3.07.37-4.19-.41-3.46-2.49,1.39-4,6.86-11.4,8-13.94s.9-10.78-11.45-10.78c-10.09,0-19.35,4.69-25.85,10.58-6.2,5.29-18.21,15.75-25.6,15.75-7.65,0,14.76-23.12,16-24.29,3.33-3.13-7.17-2.35-11.59,1-1.76,1.34-8.81,8.88-13.22,16.18-12.75,8.81-25.44,10.86-19.4,3.53,3.21-3.9,8.64-9.13,12.38-13.27,5.21-5.78,4.27-9.59-7.24-9.59-15.41,0-17,1.34-25.74,11.53-1.61,1.89-.78,6.64.89,5,10.43-10.32,10.2-9.48,24-9.48-2.22,2.36-6.18,4.71-12.89,13.23-6,7.6-2.07,13.74,6.43,13.74,4.7,0,11.71-2.2,18.12-6.72-.77,4,.82,6.79,6.87,6.79,7,0,15-4.17,21.64-8.8-.83,5,1.76,8.8,9.18,8.8,5.71,0,12.35-2.24,19.21-8.19,0,4.55,3.17,8.16,9.14,8.16C227.32,95.34,277.57,77.09,295.05,87.63Zm-106.73,1.2c-9.54,0,9.56-21.8,22-21.8C217.78,67,197.52,88.83,188.32,88.83Zm-7.57-33.72A98.22,98.22,0,0,0,195.5,43.49c2.8-2.84-9.52-1.58-12.49,1a122.05,122.05,0,0,0-11.5,11.14C169.76,57.63,176.91,57.42,180.75,55.11ZM105.44,78.33C101.7,82,93.53,88.09,86.38,88.09c-5.29,0,5.24-9.47,10.46-17.11,5-7.3.91-9.48-3.2-9.48-10.18,0-20.12,7.15-26.86,12.17,2-2.73,5.21-6.22,8.59-10.68,1.87-2.48-9.35-1.59-12.22,2.19-.92,1.2-1.92,2.54-3,4C50.39,80.86,35.68,88.76,28.46,88.76c-4,0-5.49-2.77-3-8,6-12.63,26.84-36.64,38.15-47.15,5.13-4.81-10.29-2.85-13.83.7C34.13,50.07,18.36,67.67,13.91,81.36c-2.46,7.57-.19,14.37,9.22,14.37,7.72,0,16.28-3.83,23.55-8.37L41.94,93.8c-2.05,2.78,8.35,1.76,10.54-1C60.7,82.25,80.46,69.31,86,69.31c5,0-12.24,12.92-12.08,20.83.2,10.39,24.26,4,32.43-6.67C107.59,81.81,106.59,77.21,105.44,78.33Z"/><path class="cls-2" d="M34.45,106v-1.82h1.82V106Zm.1,12.19v-9.8h1.62v9.8Z"/><path class="cls-2" d="M40.67,111.09v7.06H39v-9.8h1.54v1.37a5.36,5.36,0,0,1,3.56-1.56c1.82,0,2.81,1.21,2.81,3.3v6.69H45.34V111.7c0-1.39-.51-2-1.58-2A5,5,0,0,0,40.67,111.09Z"/><path class="cls-2" d="M53.41,118.15H51.89l-3.5-9.8h1.68l1.64,4.77,1,3,1-3,1.6-4.77h1.6Z"/><path class="cls-2" d="M62.1,118.35c-2.83,0-4.19-1.7-4.19-4.51v-1.19c0-2.71,1.44-4.49,4-4.49a3.46,3.46,0,0,1,3.7,3.74,8.73,8.73,0,0,1-.24,1.9H59.5v0c0,2,.77,3,2.63,3a7.19,7.19,0,0,0,2.89-.65l.5,1.35A8,8,0,0,1,62.1,118.35Zm-2.59-5.94h4.43a4.29,4.29,0,0,0,.06-.67,2,2,0,0,0-2.12-2.16C60.35,109.58,59.58,110.61,59.5,112.41Z"/><path class="cls-2" d="M69.38,111.09v7.06H67.75v-9.8H69.3v1.37a5.36,5.36,0,0,1,3.56-1.56c1.82,0,2.81,1.21,2.81,3.3v6.69H74V111.7c0-1.39-.51-2-1.58-2A5,5,0,0,0,69.38,111.09Z"/><path class="cls-2" d="M81.45,118.35c-2.14,0-2.77-1.42-2.77-3.23v-5.34H77v-1.42h1.7v-2.73H80.3v2.73h3.21v1.42H80.3v5.28c0,1.39.44,1.8,1.42,1.8a3.51,3.51,0,0,0,1.58-.4l.5,1.33A5.35,5.35,0,0,1,81.45,118.35Z"/><path class="cls-2" d="M89,118.35c-2.83,0-4.19-1.7-4.19-4.51v-1.19c0-2.71,1.44-4.49,4-4.49a3.46,3.46,0,0,1,3.7,3.74,8.73,8.73,0,0,1-.24,1.9H86.39v0c0,2,.77,3,2.63,3a7.19,7.19,0,0,0,2.89-.65l.5,1.35A8,8,0,0,1,89,118.35Zm-2.59-5.94h4.43a4.29,4.29,0,0,0,.06-.67,2,2,0,0,0-2.12-2.16C87.25,109.58,86.47,110.61,86.39,112.41Z"/><path class="cls-2" d="M100.68,116.77a5.16,5.16,0,0,1-3.46,1.58c-1.74,0-2.69-1.19-2.69-3.28v-6.71h1.62v6.47c0,1.39.47,2,1.46,2a4.73,4.73,0,0,0,3-1.39v-7.08h1.62v9.8h-1.52Z"/><path class="cls-2" d="M106.7,111.3v6.85h-1.62v-9.8h1.54v1.58a4.91,4.91,0,0,1,3.6-1.78v1.62A4.79,4.79,0,0,0,106.7,111.3Z"/><path class="cls-2" d="M116.08,115.56c0-.75-.4-1.17-1.66-1.48l-1.09-.28a2.78,2.78,0,0,1-2.39-2.81c0-1.5,1-2.83,3.3-2.83a7.26,7.26,0,0,1,3.13.73l-.51,1.37a6.48,6.48,0,0,0-2.61-.65c-1.11,0-1.72.42-1.72,1.29,0,.67.34,1.15,1.5,1.42l1.09.28c1.74.44,2.53,1.37,2.53,2.87s-1,2.89-3.5,2.89a8.13,8.13,0,0,1-3.42-.75l.44-1.35a7.54,7.54,0,0,0,2.95.65C115.44,116.91,116.08,116.45,116.08,115.56Z"/><path class="cls-2" d="M129.89,116.79a4.4,4.4,0,0,1-3.19,1.56c-2.08,0-3.24-1.66-3.24-4.51v-1.15c0-2.77,1.41-4.53,4.06-4.53a6.76,6.76,0,0,1,2.3.46v-5.11h1.62v14.64h-1.54Zm-2.81,0c.77,0,1.48-.28,2.73-1.48v-5.22a5.26,5.26,0,0,0-2.16-.47c-1.8,0-2.51,1.15-2.51,3v1.15C125.14,115.9,125.79,116.83,127.08,116.83Z"/><path class="cls-2" d="M140.32,116.77a5.16,5.16,0,0,1-3.46,1.58c-1.74,0-2.69-1.19-2.69-3.28v-6.71h1.62v6.47c0,1.39.47,2,1.46,2a4.73,4.73,0,0,0,3-1.39v-7.08h1.62v9.8h-1.52Z"/><path class="cls-2" d="M150.64,111.09v7.06H149v-9.8h1.54v1.37a5.35,5.35,0,0,1,3.46-1.56,2.43,2.43,0,0,1,2.45,1.64,5.49,5.49,0,0,1,3.64-1.64c1.74,0,2.69,1.21,2.69,3.3v6.69h-1.62V111.7c0-1.39-.48-2-1.46-2a5,5,0,0,0-3,1.4,2.43,2.43,0,0,1,0,.38v6.69h-1.62V111.7c0-1.39-.47-2-1.48-2A4.87,4.87,0,0,0,150.64,111.09Z"/><path class="cls-2" d="M173.34,113.84c0,2.81-1.5,4.51-4.15,4.51s-4.16-1.7-4.16-4.51v-1.19c0-2.73,1.48-4.49,4.16-4.49s4.15,1.76,4.15,4.49Zm-4.15-4.19c-1.58,0-2.47,1.13-2.47,3v1.19c0,2,.89,3,2.47,3s2.47-1.09,2.47-3v-1.19C171.66,110.77,170.79,109.64,169.19,109.64Z"/><path class="cls-2" d="M177.28,111.09v7.06h-1.62v-9.8h1.54v1.37a5.36,5.36,0,0,1,3.56-1.56c1.82,0,2.81,1.21,2.81,3.3v6.69h-1.62V111.7c0-1.39-.51-2-1.58-2A5,5,0,0,0,177.28,111.09Z"/><path class="cls-2" d="M192.28,116.79a4.4,4.4,0,0,1-3.19,1.56c-2.08,0-3.25-1.66-3.25-4.51v-1.15c0-2.77,1.41-4.53,4.06-4.53a6.76,6.76,0,0,1,2.3.46v-5.11h1.62v14.64h-1.54Zm-2.81,0c.77,0,1.48-.28,2.73-1.48v-5.22a5.26,5.26,0,0,0-2.16-.47c-1.8,0-2.51,1.15-2.51,3v1.15C187.53,115.9,188.18,116.83,189.47,116.83Z"/><path class="cls-2" d="M200.37,118.35c-2.83,0-4.2-1.7-4.2-4.51v-1.19c0-2.71,1.45-4.49,4-4.49a3.46,3.46,0,0,1,3.7,3.74,8.74,8.74,0,0,1-.24,1.9h-5.84v0c0,2,.77,3,2.63,3a7.19,7.19,0,0,0,2.89-.65l.5,1.35A8,8,0,0,1,200.37,118.35Zm-2.59-5.94h4.43a4.18,4.18,0,0,0,.06-.67,2,2,0,0,0-2.12-2.16C198.63,109.58,197.86,110.61,197.78,112.41Z"/><path class="cls-2" d="M212,111.09v7.06h-1.62v-9.8h1.54v1.37a5.36,5.36,0,0,1,3.56-1.56c1.82,0,2.81,1.21,2.81,3.3v6.69h-1.62V111.7c0-1.39-.51-2-1.58-2A5,5,0,0,0,212,111.09Z"/><path class="cls-2" d="M227.06,116.77a5.16,5.16,0,0,1-3.46,1.58c-1.74,0-2.69-1.19-2.69-3.28v-6.71h1.62v6.47c0,1.39.47,2,1.46,2a4.73,4.73,0,0,0,3-1.39v-7.08h1.62v9.8h-1.52Z"/><path class="cls-2" d="M233.08,111.09v7.06h-1.62v-9.8H233v1.37a5.35,5.35,0,0,1,3.46-1.56,2.43,2.43,0,0,1,2.45,1.64,5.49,5.49,0,0,1,3.64-1.64c1.74,0,2.69,1.21,2.69,3.3v6.69h-1.62V111.7c0-1.39-.48-2-1.46-2a5,5,0,0,0-3,1.4,2.43,2.43,0,0,1,0,.38v6.69h-1.62V111.7c0-1.39-.47-2-1.48-2A4.87,4.87,0,0,0,233.08,111.09Z"/><path class="cls-2" d="M251.7,118.35c-2.83,0-4.2-1.7-4.2-4.51v-1.19c0-2.71,1.45-4.49,4-4.49a3.46,3.46,0,0,1,3.7,3.74,8.74,8.74,0,0,1-.24,1.9h-5.84v0c0,2,.77,3,2.63,3a7.19,7.19,0,0,0,2.89-.65l.5,1.35A8,8,0,0,1,251.7,118.35Zm-2.59-5.94h4.43a4.18,4.18,0,0,0,.06-.67,2,2,0,0,0-2.12-2.16C250,109.58,249.19,110.61,249.11,112.41Zm1.68-5.72,1.78-3.28,1.54.71-1.92,2.57Z"/><path class="cls-2" d="M259,111.3v6.85h-1.62v-9.8h1.54v1.58a4.91,4.91,0,0,1,3.6-1.78v1.62A4.79,4.79,0,0,0,259,111.3Z"/><path class="cls-2" d="M263.89,106v-1.82h1.82V106Zm.1,12.19v-9.8h1.62v9.8Z"/><path class="cls-2" d="M276,122.37h-1.62v-5.54a4.41,4.41,0,0,1-3.15,1.52c-2.06,0-3.21-1.66-3.21-4.51v-1.15c0-2.77,1.41-4.53,4.06-4.53a8.35,8.35,0,0,1,3.92,1.07Zm-4.37-5.54c.75,0,1.48-.28,2.75-1.5v-5.18a5.41,5.41,0,0,0-2.2-.49c-1.76,0-2.47,1.15-2.47,3v1.15C269.69,115.9,270.32,116.83,271.61,116.83Z"/><path class="cls-2" d="M284.82,116.77a5.16,5.16,0,0,1-3.46,1.58c-1.74,0-2.69-1.19-2.69-3.28v-6.71h1.62v6.47c0,1.39.47,2,1.46,2a4.73,4.73,0,0,0,3-1.39v-7.08h1.62v9.8h-1.52Z"/><path class="cls-2" d="M292.9,118.35c-2.83,0-4.2-1.7-4.2-4.51v-1.19c0-2.71,1.45-4.49,4-4.49a3.46,3.46,0,0,1,3.7,3.74,8.74,8.74,0,0,1-.24,1.9h-5.84v0c0,2,.77,3,2.63,3a7.19,7.19,0,0,0,2.89-.65l.5,1.35A8,8,0,0,1,292.9,118.35Zm-2.59-5.94h4.43a4.18,4.18,0,0,0,.06-.67,2,2,0,0,0-2.12-2.16C291.16,109.58,290.38,110.61,290.31,112.41Z"/></g></g></svg>